<?xml version="1.0" encoding="utf-8"?>
<!-- Generator: Adobe Illustrator 26.0.3, SVG Export Plug-In . SVG Version: 6.00 Build 0)  -->
<svg version="1.1" id="레이어_1" xmlns="http://www.w3.org/2000/svg" xmlns:xlink="http://www.w3.org/1999/xlink" x="0px"
	 y="0px" viewBox="0 0 62.1 52.4" style="enable-background:new 0 0 62.1 52.4;" xml:space="preserve">
<style type="text/css">
	.st0{fill:#231815;}
</style>
<g>
	<g>
		<path class="st0" d="M51.2,52.4H10.9c-4.1,0-7.7-2.1-9.6-5.7c-1.9-3.6-1.8-7.8,0.5-11.2L21.9,4.9C24,1.8,27.4,0,31.1,0
			c0,0,0,0,0,0c3.7,0,7.1,1.8,9.1,4.9l20.1,30.6c2.2,3.4,2.4,7.6,0.5,11.2C58.8,50.2,55.2,52.4,51.2,52.4z M31.1,4
			c-2.4,0-4.5,1.1-5.8,3.1L5.2,37.7c-1.4,2.2-1.5,4.8-0.3,7.1s3.5,3.6,6.1,3.6h40.2c2.6,0,4.9-1.4,6.1-3.6c1.2-2.3,1.1-4.9-0.3-7.1
			L36.8,7.1C35.5,5.1,33.4,4,31.1,4z"/>
	</g>
	<g>
		<g>
			<path class="st0" d="M31.1,34.8c-1.1,0-2-0.9-2-2V13.5c0-1.1,0.9-2,2-2s2,0.9,2,2v19.3C33.1,33.9,32.2,34.8,31.1,34.8z"/>
		</g>
		<g>
			<path class="st0" d="M31.1,43.9c-1.1,0-2-0.9-2-2v-3c0-1.1,0.9-2,2-2s2,0.9,2,2v3C33.1,43,32.2,43.9,31.1,43.9z"/>
		</g>
	</g>
</g>
</svg>
